<?xml version="1.0" standalone="yes"?>
<svg xmlns="http://www.w3.org/2000/svg" width="383" height="191">
<path style="fill:#000; stroke:none;" d="M146 66C146 92.0339 144 117.903 144 144C144 152.083 144.609 159.966 144.961 168C145.117 171.567 144.466 175.518 145.434 178.995C148.015 188.27 160.699 186.012 168 186C171.344 185.994 175.003 186.267 177.891 184.258C182.09 181.337 181.992 176.586 182 172L182 142L182 54C182 40.3142 184.236 24.4557 181.772 11.0008C179.776 0.108276 165.061 2.98705 157 3C153.25 3.00603 149.341 2.82826 146.015 4.85803C140.231 8.38693 136.114 15.6753 132.127 21C123.416 32.632 114.847 44.3725 106.127 56C101.533 62.1243 95.0937 68.1884 94 76L92 76C85.4752 62.6496 76.2719 51.8646 67.3735 40C61.061 31.5833 54.5377 23.3349 48.1188 15C45.0769 11.05 41.8504 5.61896 36.9961 3.74228C34.2117 2.6658 30.9242 3.00113 28 3C20.2359 2.99701 2.44358 0.381226 3.32948 13C3.56576 16.3656 5.86938 19.3307 7.72068 22C11.7419 27.798 16.156 33.2899 20.2932 39C36.2218 60.9845 52.9063 82.5715 69.5756 104C75.1827 111.208 83.2868 128.097 94 127.366C101.385 126.861 106.658 117.177 110.8 112C119.816 100.731 128.63 89.3073 137.6 78C140.64 74.1669 142.514 69.3029 146 66M329 39C319.904 46.0466 310.213 56.8498 304.653 67C301.504 72.747 303.391 79.5185 310.001 81.4275C315.777 83.0957 323.034 82.0023 329 82C332.31 81.9987 335.946 82.3484 339 80.821C343.969 78.3356 347.452 73.0531 351.05 69C359.401 59.5932 368.012 50.0674 375.56 40C381.004 32.7388 380.103 24.6532 379.996 16C379.94 11.4494 379.403 6.58884 374.945 4.17902C371.74 2.44623 367.509 3.00023 364 3L342 3L267 3C257.839 3 243.361 0.419693 235.109 5.17516C228.649 8.89813 230.037 25.5678 231.228 31.9954C231.685 34.4598 232.868 36.4544 235.109 37.6821C239.39 40.0281 245.321 38.8345 250 39.0394C261.686 39.5511 273.258 40 285 40C299.712 40 314.325 39 329 39M89 69C90.1034 70.4566 90.5434 70.8966 92 72C90.8966 70.5433 90.4567 70.1034 89 69M280 152C281.703 151.302 282.191 151.166 284 151C288.437 144.285 293.781 138.185 298.919 132C301.814 128.515 305.737 124.639 306.566 120C309.044 106.133 289.085 109 281 109C277.822 109 274.036 108.484 271 109.603C264.006 112.182 258.374 121.477 253.754 127C248.2 133.639 242.648 140.278 237.196 147C234.737 150.032 231.163 153.144 230.063 157C228.882 161.14 230.007 166.695 230 171C229.995 174.386 229.032 178.805 230.349 181.995C232.611 187.478 237.859 187.989 243 188L275 188L346 188L365 188C368.226 187.999 372 188.424 374.942 186.821C382.205 182.864 380.695 167.943 379.815 161C379.442 158.061 378.468 154.802 375.775 153.179C371.884 150.834 365.36 152 361 152L326 152L280 152M11 122.533C-0.900137 125.432 3 142.651 3 152C3 160.047 0.409899 173.667 4.3179 180.895C8.32675 188.31 25.8889 187.286 32.9846 185.606C43.3861 183.143 41 164.156 41 156L41 138C40.9998 134.785 41.4984 130.972 39.9722 128.015C35.6723 119.685 18.8582 120.619 11 122.533z"/>
</svg>
